<svg width="23" height="14" viewBox="0 0 23 14" fill="none" xmlns="http://www.w3.org/2000/svg">
<path fill-rule="evenodd" clip-rule="evenodd" d="M0 1C0 0.447715 0.506432 0 1.13115 0H21.8689C22.4936 0 23 0.447715 23 1C23 1.55228 22.4936 2 21.8689 2H1.13115C0.506432 2 0 1.55228 0 1Z" fill="white"/>
<path fill-rule="evenodd" clip-rule="evenodd" d="M0 7C0 6.44772 0.506432 6 1.13115 6H21.8689C22.4936 6 23 6.44772 23 7C23 7.55228 22.4936 8 21.8689 8H1.13115C0.506432 8 0 7.55228 0 7Z" fill="white"/>
<path fill-rule="evenodd" clip-rule="evenodd" d="M0 13C0 12.4477 0.506432 12 1.13115 12H21.8689C22.4936 12 23 12.4477 23 13C23 13.5523 22.4936 14 21.8689 14H1.13115C0.506432 14 0 13.5523 0 13Z" fill="white"/>
</svg>
