<svg width="13" height="11" viewBox="0 0 13 11" fill="none" xmlns="http://www.w3.org/2000/svg">
<path d="M3.82571 0C1.75993 0 0 1.5774 0 3.62605C0 5.03933 0.648029 6.22917 1.50688 7.21481C2.36278 8.19705 3.46702 9.02153 4.46529 9.71159L6.18769 10.9022C6.37632 11.0326 6.62368 11.0326 6.81231 10.9022L8.5347 9.71159C9.53298 9.02153 10.6372 8.19705 11.4931 7.21481C12.352 6.22917 13 5.03933 13 3.62605C13 1.5774 11.2401 0 9.17429 0C8.10942 0 7.1724 0.509898 6.5 1.16967C5.8276 0.509898 4.89058 0 3.82571 0Z" fill="#CECFDB"/>
</svg>
