<svg width="142" height="25" viewBox="0 0 142 25" fill="none" xmlns="http://www.w3.org/2000/svg">
<path d="M127 22V3H134.505C135.941 3 137.167 3.25667 138.183 3.77002C139.204 4.27718 139.981 4.99772 140.514 5.93164C141.053 6.85937 141.322 7.95101 141.322 9.20654C141.322 10.4683 141.05 11.5537 140.505 12.4629C139.96 13.3659 139.17 14.0586 138.136 14.541C137.108 15.0234 135.864 15.2646 134.402 15.2646H129.378V12.0361H133.752C134.52 12.0361 135.158 11.931 135.666 11.7207C136.173 11.5104 136.551 11.195 136.799 10.7744C137.053 10.3538 137.18 9.83122 137.18 9.20654C137.18 8.57568 137.053 8.04378 136.799 7.61084C136.551 7.1779 136.17 6.8501 135.656 6.62744C135.149 6.3986 134.508 6.28418 133.734 6.28418H131.022V22H127ZM137.272 13.3535L142 22H137.56L132.935 13.3535H137.272Z" fill="white"/>
<path d="M122.5 22C121.813 22 121.222 21.8047 120.729 21.4142C120.243 21.0181 120 20.5439 120 19.9916C120 19.4449 120.243 18.9763 120.729 18.5858C121.222 18.1953 121.813 18 122.5 18C123.167 18 123.75 18.1953 124.25 18.5858C124.75 18.9763 125 19.4449 125 19.9916C125 20.3598 124.882 20.6974 124.646 21.0042C124.417 21.3054 124.115 21.5481 123.74 21.7322C123.365 21.9107 122.951 22 122.5 22Z" fill="white"/>
<path d="M105 22V3H117.962V6.31201H109.067V10.8394H117.296V14.1514H109.067V18.688H118V22H105Z" fill="white"/>
<path d="M101 22C100.45 22 99.9778 21.8047 99.5833 21.4142C99.1944 21.0181 99 20.5439 99 19.9916C99 19.4449 99.1944 18.9763 99.5833 18.5858C99.9778 18.1953 100.45 18 101 18C101.533 18 102 18.1953 102.4 18.5858C102.8 18.9763 103 19.4449 103 19.9916C103 20.3598 102.906 20.6974 102.717 21.0042C102.533 21.3054 102.292 21.5481 101.992 21.7322C101.692 21.9107 101.361 22 101 22Z" fill="white"/>
<path d="M83 6.31201V3H98V6.31201H92.4084V22H88.5916V6.31201H83Z" fill="white"/>
<path d="M80 22C79.45 22 78.9778 21.8047 78.5833 21.4142C78.1944 21.0181 78 20.5439 78 19.9916C78 19.4449 78.1944 18.9763 78.5833 18.5858C78.9778 18.1953 79.45 18 80 18C80.5333 18 81 18.1953 81.4 18.5858C81.8 18.9763 82 19.4449 82 19.9916C82 20.3598 81.9056 20.6974 81.7167 21.0042C81.5333 21.3054 81.2917 21.5481 80.9917 21.7322C80.6917 21.9107 80.3611 22 80 22Z" fill="white"/>
<path d="M63 22V3H75.9624V6.31201H67.0672V10.8394H75.2955V14.1514H67.0672V18.688H76V22H63Z" fill="white"/>
<path d="M59 22C58.45 22 57.9778 21.8047 57.5833 21.4142C57.1944 21.0181 57 20.5439 57 19.9916C57 19.4449 57.1944 18.9763 57.5833 18.5858C57.9778 18.1953 58.45 18 59 18C59.5333 18 60 18.1953 60.4 18.5858C60.8 18.9763 61 19.4449 61 19.9916C61 20.3598 60.9056 20.6974 60.7167 21.0042C60.5333 21.3054 60.2917 21.5481 59.9917 21.7322C59.6917 21.9107 59.3611 22 59 22Z" fill="white"/>
<path d="M37.4201 22L32 3H36.375L39.5105 16.2017H39.6677L43.127 3H46.873L50.323 16.2295H50.4895L53.625 3H58L52.5799 22H48.6766L45.0694 9.57764H44.9214L41.3234 22H37.4201Z" fill="white"/>
<path fill-rule="evenodd" clip-rule="evenodd" d="M6.38083 9.21111C6.38107 9.3131 6.27109 9.37193 6.19461 9.30518C5.61674 8.80093 4.00266 7.09373 5.25543 4.63129C6.0248 3.11904 7.0992 2.47631 8.13099 1.85906C8.88016 1.41089 9.60687 0.976151 10.178 0.231754C10.4213 -0.085256 10.9278 -0.0885266 11.0489 0.293235C11.6232 2.10391 11.1112 4.12504 10.5832 6.20971C10.0974 8.12754 9.59797 10.0991 9.91816 12.0101C9.95452 12.2271 9.72111 12.4017 9.53798 12.2819C8.07647 11.3263 6.36038 9.69481 7.11009 6.60618C7.14507 6.46205 6.97238 6.38455 6.91488 6.52115C6.56161 7.36033 6.3786 8.27528 6.38083 9.21111ZM5.84583 15.123C5.9414 15.0896 5.94586 14.9641 5.85814 14.9133C5.05324 14.4474 4.35889 13.8301 3.81476 13.102C3.72618 12.9835 3.87909 12.8715 3.98539 12.9741C6.26336 15.1731 8.52267 14.4903 10.0742 13.6919C10.2687 13.5919 10.2354 13.3008 10.0309 13.224C8.22944 12.5481 6.78573 11.1262 5.3814 9.74314C3.8549 8.23971 2.37492 6.7821 0.53259 6.37824C0.144153 6.29308 -0.106291 6.73701 0.0443699 7.10791C0.398147 7.97886 0.408188 8.8308 0.41854 9.70907C0.432796 10.9187 0.447641 12.1782 1.36184 13.6061C2.85043 15.9313 5.1238 15.3755 5.84583 15.123ZM16.1542 9.877C16.0586 9.91042 16.0541 10.0359 16.1419 10.0866C16.9468 10.5526 17.6411 11.1699 18.1852 11.898C18.2738 12.0165 18.1209 12.1285 18.0146 12.0259C15.7366 9.82694 13.4773 10.5097 11.9258 11.3081C11.7313 11.4081 11.7646 11.6992 11.9691 11.776C13.7706 12.4519 15.2143 13.8738 16.6186 15.2569C18.1451 16.7603 19.6251 18.2179 21.4674 18.6218C21.8558 18.7069 22.1063 18.263 21.9556 17.8921C21.6019 17.0211 21.5918 16.1692 21.5815 15.2909C21.5672 14.0813 21.5524 12.8218 20.6382 11.3939C19.1496 9.0687 16.8762 9.62453 16.1542 9.877ZM15.8054 15.6948C15.7289 15.6281 15.6189 15.6869 15.6192 15.7889C15.6214 16.7247 15.4384 17.6397 15.0851 18.4788C15.0276 18.6154 14.8549 18.538 14.8899 18.3938C15.6396 15.3052 13.9235 13.6737 12.462 12.7181C12.2789 12.5983 12.0455 12.7729 12.0818 12.9899C12.402 14.9009 11.9026 16.8725 11.4169 18.7903C10.8888 20.875 10.3769 22.8961 10.9511 24.7068C11.0722 25.0885 11.5787 25.0853 11.822 24.7682C12.3931 24.0238 13.1198 23.5891 13.869 23.1409C14.9008 22.5237 15.9752 21.881 16.7446 20.3687C17.9973 17.9063 16.3833 16.1991 15.8054 15.6948ZM10.445 18.1926C10.5325 18.1413 10.638 18.208 10.6189 18.3081C10.4747 19.0648 9.81544 21.3279 7.07407 21.4652C5.39051 21.5495 4.30127 20.9327 3.25522 20.3403C2.4957 19.9102 1.75895 19.493 0.833999 19.3665C0.440098 19.3126 0.184037 18.8719 0.451391 18.5753C1.71944 17.1685 3.71137 16.605 5.76591 16.0237C7.65603 15.489 9.59914 14.9393 11.0804 13.7042C11.2486 13.564 11.5152 13.6805 11.5039 13.9003C11.4139 15.6543 10.8707 17.9686 7.84298 18.8582C7.70169 18.8997 7.72148 19.0893 7.86755 19.0712C8.76495 18.9601 9.64231 18.6624 10.445 18.1926ZM11.3811 6.69187C11.362 6.79203 11.4675 6.85865 11.555 6.80745C12.3577 6.33758 13.235 6.03992 14.1324 5.9288C14.2785 5.91072 14.2983 6.10026 14.157 6.14178C11.1293 7.03144 10.5861 9.34568 10.4961 11.0997C10.4848 11.3195 10.7514 11.436 10.9196 11.2958C12.4009 10.0607 14.344 9.51098 16.2341 8.97626C18.2886 8.39502 20.2806 7.83149 21.5486 6.42469C21.816 6.12808 21.5599 5.68743 21.166 5.63353C20.241 5.50698 19.5043 5.08978 18.7448 4.65968C17.6987 4.06733 16.6095 3.45053 14.9259 3.53484C12.1846 3.67212 11.5253 5.93515 11.3811 6.69187Z" fill="white"/>
</svg>
